<?xml version="1.0" encoding="utf-8"?>
<!-- Generator: Adobe Illustrator 27.0.1, SVG Export Plug-In . SVG Version: 6.00 Build 0)  -->
<svg version="1.1" id="Layer_1" xmlns="http://www.w3.org/2000/svg" xmlns:xlink="http://www.w3.org/1999/xlink" x="0px" y="0px"
	 viewBox="0 0 434.2 141.7" style="enable-background:new 0 0 434.2 141.7;" xml:space="preserve">
<style type="text/css">
	.st0{fill:#09509E;}
	.st1{fill:#FBED21;}
	.st2{fill:#696563;}
	.st3{fill:#3F3F3F;}
	.st4{fill:#006536;}
	.st5{fill:#D71921;}
	.st6{fill:#639E35;}
	.st7{fill:#F89C1C;}
	.st8{fill:#FFF100;}
	.st9{fill-rule:evenodd;clip-rule:evenodd;fill:#FFF100;}
	.st10{fill:#210000;}
	.st11{fill:#001505;}
	.st12{fill:#FFFFFF;}
	.st13{fill:#002559;}
	.st14{fill-rule:evenodd;clip-rule:evenodd;fill:#FFFFFF;}
	.st15{fill:#55B851;}
	.st16{fill:#32B34A;}
	.st17{fill:#4DB750;}
	.st18{fill:#2AAB4A;}
	.st19{fill:#2D9747;}
	.st20{fill:#2BA349;}
	.st21{fill:#2E9C48;}
	.st22{fill:#2CA649;}
	.st23{fill:#2BA84A;}
	.st24{fill:#2EA049;}
	.st25{fill:#2BAC4A;}
	.st26{fill:#3BB44A;}
	.st27{fill:#2DA149;}
	.st28{fill:#2D9346;}
	.st29{fill:#358B43;}
	.st30{fill:#2D9044;}
	.st31{fill:#44B54E;}
	.st32{fill:#307A3C;}
	.st33{fill:#2EAE4A;}
	.st34{fill:#33803E;}
	.st35{fill:#379345;}
	.st36{fill:#379044;}
	.st37{fill:#2FAF4A;}
	.st38{fill:#2F8B43;}
	.st39{fill:#389646;}
	.st40{fill:#2DA449;}
	.st41{fill:#348842;}
	.st42{fill:#2E9A47;}
	.st43{fill:#2D753A;}
	.st44{fill:#35813E;}
	.st45{fill:#358640;}
	.st46{fill:#338540;}
	.st47{fill:#444445;}
	.st48{fill:#2F8641;}
	.st49{fill:#33823F;}
	.st50{fill:#2C6F37;}
	.st51{fill:#3FB44D;}
	.st52{fill:#39B44A;}
	.st53{fill:#308842;}
	.st54{fill:#30803E;}
	.st55{fill:#308340;}
	.st56{fill:#46B650;}
	.st57{fill:#327C3D;}
	.st58{fill:#40B661;}
	.st59{fill:#296733;}
	.st60{fill:#30763A;}
	.st61{fill:#2B6C36;}
	.st62{fill:#454546;}
	.st63{fill:#7CC261;}
	.st64{fill:#336C35;}
	.st65{fill:#4CB869;}
	.st66{fill:#4EB751;}
	.st67{fill:#3AB15C;}
	.st68{fill:#464646;}
	.st69{fill:#357E3D;}
	.st70{fill:#50BA75;}
	.st71{fill:#43B879;}
	.st72{fill:#286231;}
	.st73{fill:#53BA6C;}
	.st74{fill:#34763A;}
	.st75{fill:#357A3B;}
	.st76{fill:#54BA6F;}
	.st77{fill:#337238;}
	.st78{fill:#4AB765;}
	.st79{fill:#3AAC58;}
	.st80{fill:#39A956;}
	.st81{fill:#307138;}
	.st82{fill:#349E52;}
	.st83{fill:#6CC07F;}
	.st84{fill:#37A354;}
	.st85{fill:#2F6C35;}
	.st86{fill:#5FBD81;}
	.st87{fill:#336531;}
	.st88{fill:#59863E;}
	.st89{fill:#474747;}
	.st90{fill:#474646;}
	.st91{fill:#688740;}
	.st92{fill:#4F6D37;}
	.st93{fill:#326863;}
	.st94{fill:#368941;}
	.st95{fill:#2D9A47;}
	.st96{fill:#75C060;}
	.st97{fill:#6DBE5C;}
	.st98{fill:#5CBC7B;}
	.st99{fill:#2D9446;}
	.st100{fill:#57B577;}
	.st101{fill:#22655B;}
	.st102{fill:#63BE7D;}
	.st103{fill:#6BBC57;}
	.st104{fill:#69B352;}
	.st105{fill:#66AA53;}
	.st106{fill:#6BAE4F;}
	.st107{fill:#5E9445;}
	.st108{fill:#629C4B;}
	.st109{fill:#63A24E;}
	.st110{fill:#68B156;}
	.st111{fill:#6AA94D;}
	.st112{fill:#3B9946;}
	.st113{fill:#5A8D41;}
	.st114{fill:#69A44B;}
	.st115{fill:#6BA04A;}
	.st116{fill:#34AF61;}
	.st117{fill:#3FB665;}
	.st118{fill:#699A47;}
	.st119{fill:#336D35;}
	.st120{fill:#337639;}
	.st121{fill:#336632;}
	.st122{fill:#314C22;}
	.st123{fill:#337138;}
	.st124{fill:#315327;}
	.st125{fill:#315E2E;}
	.st126{fill:#325B2C;}
	.st127{fill:#336330;}
	.st128{fill:#30441F;}
	.st129{fill:#3BB66C;}
	.st130{fill:#49B870;}
	.st131{fill:#34AB5D;}
	.st132{fill:#35833F;}
	.st133{fill:#44B874;}
	.st134{fill:#6CC07A;}
	.st135{fill:#6BC07E;}
	.st136{fill:#34A85B;}
	.st137{fill:#33A157;}
	.st138{fill:#689645;}
	.st139{fill:#3DA149;}
	.st140{fill:#3B9D47;}
	.st141{fill:#3FA64C;}
	.st142{fill:#246049;}
	.st143{fill:#1E5054;}
	.st144{fill:#1C4859;}
	.st145{fill:#205650;}
	.st146{fill:#225A4D;}
	.st147{fill:#1C4B57;}
	.st148{fill:#688F43;}
	.st149{fill:#1E5356;}
	.st150{fill:#359144;}
	.st151{fill:#358C43;}
	.st152{fill:#325F2E;}
	.st153{fill:#325A2B;}
	.st154{fill:#2C9245;}
	.st155{fill:#277446;}
	.st156{fill:#57B074;}
	.st157{fill:#2B763B;}
	.st158{fill:#317E3D;}
	.st159{fill:#286F3D;}
	.st160{fill:#266942;}
	.st161{fill:#256446;}
	.st162{fill:#389D47;}
	.st163{fill:#6AB659;}
	.st164{fill:#368E43;}
	.st165{fill:#335629;}
	.st166{fill:#315428;}
	.st167{fill:#379846;}
	.st168{fill:#314B22;}
	.st169{fill:#549B75;}
	.st170{fill:#57A972;}
	.st171{fill:#6FBD60;}
	.st172{fill:#549079;}
	.st173{fill:#37B467;}
	.st174{fill:#30B069;}
	.st175{fill:#30AD65;}
	.st176{fill:#31AB61;}
	.st177{fill:#31B56E;}
	.st178{fill:#39B670;}
	.st179{fill:#23504A;}
	.st180{fill:#2BAE6D;}
	.st181{fill:#214F4E;}
	.st182{fill:#1F4F51;}
	.st183{fill:#5CBC77;}
	.st184{fill:#2CA45F;}
	.st185{fill:#2EA963;}
	.st186{fill:#31A25B;}
	.st187{fill:#359746;}
	.st188{fill:#359244;}
	.st189{fill:#276B41;}
	.st190{fill:#276F43;}
	.st191{fill:#2D8F44;}
	.st192{fill:#308942;}
	.st193{fill:#30813F;}
	.st194{fill:#2A6E3A;}
	.st195{fill:#296B39;}
	.st196{fill:#2B713A;}
	.st197{fill:#2B743A;}
	.st198{fill:#4CAF78;}
	.st199{fill:#265D40;}
	.st200{fill:#2DAC69;}
	.st201{fill:#29653C;}
	.st202{fill:#245347;}
	.st203{fill:#28AA6D;}
	.st204{fill:#27673F;}
	.st205{fill:#245645;}
	.st206{fill:#1EA26D;}
	.st207{fill:#25A56B;}
	.st208{fill:#51B477;}
	.st209{fill:#279F61;}
	.st210{fill:#29A263;}
	.st211{fill:#2BA565;}
	.st212{fill:#29A96A;}
	.st213{fill:#159770;}
	.st214{fill:#18996D;}
	.st215{fill:#219D67;}
	.st216{fill:#1B9B69;}
	.st217{fill:#327D3D;}
	.st218{fill:#307B3C;}
	.st219{fill:#29693A;}
	.st220{fill:#255A42;}
	.st221{fill:#28683D;}
	.st222{fill:#2A663A;}
	.st223{fill:#1D9E6B;}
	.st224{fill:#1B9C6F;}
	.st225{fill:#22A168;}
	.st226{fill-rule:evenodd;clip-rule:evenodd;fill:none;}
	.st227{fill-rule:evenodd;clip-rule:evenodd;fill:#EAD31C;}
	.st228{fill-rule:evenodd;clip-rule:evenodd;fill:#006738;}
	.st229{fill:#E9E8E7;}
	.st230{fill:#E6E5E4;}
	.st231{fill:#E8E7E6;}
	.st232{fill:#E4E4E3;}
	.st233{fill:#E3E2E1;}
	.st234{fill:#E4E3E2;}
	.st235{fill:#E3E3E1;}
	.st236{fill:#E6E6E5;}
	.st237{fill:#E2E1E0;}
	.st238{fill:#E1E1DF;}
	.st239{fill:#E7E7E5;}
	.st240{fill:#DFDFDD;}
	.st241{fill:#E5E5E4;}
	.st242{fill:#E0DFDE;}
	.st243{fill:#DFDEDC;}
	.st244{fill:#E0E0DE;}
	.st245{fill:#DEDDDC;}
	.st246{fill:#DDDCDA;}
	.st247{fill:#DDDDDB;}
	.st248{fill:#EDECEB;}
	.st249{fill:#E9E9E8;}
	.st250{fill:#DCDBDA;}
	.st251{fill:#ECECEB;}
	.st252{fill:#EAEAE9;}
	.st253{fill:#EBEBEA;}
	.st254{fill:#DAD9D8;}
	.st255{fill:#DADAD8;}
	.st256{fill:#DBDBD9;}
	.st257{fill:#D9D8D6;}
	.st258{fill:#D9D9D7;}
	.st259{fill:#EAE9E8;}
	.st260{fill:#1B1C20;}
	.st261{clip-path:url(#SVGID_00000117657741431301235180000000921400868679970216_);}
	
		.st262{clip-path:url(#SVGID_00000103955972342243114600000001543839908690072484_);fill:url(#SVGID_00000183957650092427437350000017479025634077040042_);}
	
		.st263{clip-path:url(#SVGID_00000035520302355337486820000005290225270558325160_);fill:url(#SVGID_00000069361124717151610780000003314453224056257953_);}
	
		.st264{clip-path:url(#SVGID_00000092450141909842315490000002404142292928873865_);fill:url(#SVGID_00000127742419442458703680000017546556073270585269_);}
	
		.st265{clip-path:url(#SVGID_00000155851233804414656390000012327590039036777380_);fill:url(#SVGID_00000034055160401470059610000014225107718313321624_);}
	
		.st266{clip-path:url(#SVGID_00000179637150564553222920000014793896106305927835_);fill:url(#SVGID_00000096058419902275012640000017067654645447511961_);}
	
		.st267{clip-path:url(#SVGID_00000081624817183699403740000002834325875521810846_);fill-rule:evenodd;clip-rule:evenodd;fill:#4E4E4D;}
	
		.st268{clip-path:url(#SVGID_00000160904376556138605790000017718102316044990343_);fill:url(#SVGID_00000174599666710338918130000005460846164072005035_);}
	
		.st269{clip-path:url(#SVGID_00000014626578371196223600000010381358832733702834_);fill:url(#SVGID_00000128471618062135283870000007962343565231593356_);}
	.st270{filter:url(#Adobe_OpacityMaskFilter);}
	.st271{clip-path:url(#SVGID_00000117675053877637934180000007325617626938241924_);}
	.st272{clip-path:url(#SVGID_00000017499875683819223700000010135922199926055565_);}
	.st273{enable-background:new    ;}
	
		.st274{clip-path:url(#SVGID_00000017499875683819223700000010135922199926055565_);fill:url(#SVGID_00000018930651361721876380000002815732773650917024_);}
	
		.st275{clip-path:url(#SVGID_00000117675053877637934180000007325617626938241924_);mask:url(#SVGID_00000170960112347471419430000013251333127876380813_);}
	
		.st276{clip-path:url(#SVGID_00000133492183916265903000000002122560355914989471_);fill-rule:evenodd;clip-rule:evenodd;fill:#070708;}
	.st277{filter:url(#Adobe_OpacityMaskFilter_00000009571956870930173420000009973050230326346657_);}
	.st278{clip-path:url(#SVGID_00000068652618650561421130000007400273621629027982_);}
	
		.st279{clip-path:url(#SVGID_00000068652618650561421130000007400273621629027982_);fill:url(#SVGID_00000182500751286179143010000016759253955930714294_);}
	
		.st280{clip-path:url(#SVGID_00000117675053877637934180000007325617626938241924_);mask:url(#SVGID_00000124119519604675343330000018158567329615435449_);}
	
		.st281{clip-path:url(#SVGID_00000020396471036764069670000004578131046641309864_);fill-rule:evenodd;clip-rule:evenodd;fill:#070708;}
	
		.st282{clip-path:url(#SVGID_00000075126717061582145760000006427094826133403297_);fill:url(#SVGID_00000133494864051056639680000012739232242495412390_);}
	
		.st283{clip-path:url(#SVGID_00000126308448300139576480000002563257975462679962_);fill:url(#SVGID_00000030461840032066468980000012159383545469465227_);}
	.st284{filter:url(#Adobe_OpacityMaskFilter_00000079484850404225368500000013721401191080464263_);}
	.st285{clip-path:url(#SVGID_00000004504024456597929970000016113986316241242043_);}
	
		.st286{clip-path:url(#SVGID_00000090283984330518466330000000692183908156761512_);fill:url(#SVGID_00000170989420186101269500000011378628321507369104_);}
	
		.st287{clip-path:url(#SVGID_00000004504024456597929970000016113986316241242043_);mask:url(#SVGID_00000139290727839910555530000003266286754591756976_);}
	
		.st288{clip-path:url(#SVGID_00000134961482911164461380000009622564584737008558_);fill-rule:evenodd;clip-rule:evenodd;fill:#383938;}
	.st289{filter:url(#Adobe_OpacityMaskFilter_00000180332891902377319900000012330771299134842763_);}
	.st290{clip-path:url(#SVGID_00000099658851659015468810000010304226172191991482_);}
	.st291{clip-path:url(#SVGID_00000173865742548670122890000004588338095171252412_);}
	
		.st292{clip-path:url(#SVGID_00000057134451023418434050000006444923277174193854_);fill:url(#SVGID_00000155829830340892072480000004442246249252407972_);}
	
		.st293{clip-path:url(#SVGID_00000004504024456597929970000016113986316241242043_);mask:url(#SVGID_00000044870880656373679830000015507279373472644264_);}
	
		.st294{clip-path:url(#SVGID_00000018942874475423859060000010268667977539690427_);fill-rule:evenodd;clip-rule:evenodd;fill:#253266;}
	.st295{filter:url(#Adobe_OpacityMaskFilter_00000170990016416304251290000010096831261536501143_);}
	.st296{clip-path:url(#SVGID_00000122691469173697369130000005061287566856268679_);}
	
		.st297{clip-path:url(#SVGID_00000052083487655191182140000013684808341106547886_);fill:url(#SVGID_00000038413104461902796950000012858674644526805435_);}
	
		.st298{clip-path:url(#SVGID_00000004504024456597929970000016113986316241242043_);mask:url(#SVGID_00000000192959960201752110000014569645711074445499_);}
	
		.st299{clip-path:url(#SVGID_00000088131677610866819970000003958647938540676741_);fill-rule:evenodd;clip-rule:evenodd;fill:#070708;}
	
		.st300{clip-path:url(#SVGID_00000004504024456597929970000016113986316241242043_);fill-rule:evenodd;clip-rule:evenodd;fill:#4E4E4D;}
</style>
<g>
	<path d="M40.3,27.4v86.9h131.2V27.4H40.3z M130.1,54.9l1.1-3.5l1.1,3.5h3.8l-3.1,2.3l1.2,3.6l-3-2.2l-3,2.2l1.2-3.6l-3.1-2.3H130.1
		z M71.5,69.5h3.8l1.1-3.6l1.1,3.6h3.8l-3.1,2.3l1.2,3.6l-3.1-2.2l-3.1,2.2l1.2-3.6L71.5,69.5z M83.4,90.5l-3-2.2l-3.1,2.2l1.2-3.6
		l-3.1-2.3h3.8l1.2-3.6l1.1,3.6h3.8l-3.1,2.3L83.4,90.5z M82.2,57.3l1.2,3.6l-3-2.2l-3.1,2.2l1.2-3.6L75.4,55h3.8l1.2-3.6l1.1,3.6
		h3.8L82.2,57.3z M89.7,44.2l1.1-3.6l1.1,3.6h3.8l-3.1,2.3l1.2,3.6l-3-2.2l-3.1,2.2l1.2-3.6l-3.1-2.3H89.7z M94.1,101.1l-3-2.2
		l-3,2.2l1.2-3.6l-3.1-2.3h3.8l1.2-3.6l1.1,3.6h3.8l-3.1,2.3L94.1,101.1z M104.5,40.3l1.1-3.6l1.1,3.6h3.8l-3.1,2.3l1.2,3.6
		l-3.1-2.2l-3,2.2l1.2-3.6l-3.1-2.3H104.5z M108.9,105l-3-2.2l-3,2.2l1.2-3.6l-3.1-2.3h3.8l1.1-3.6l1.1,3.6h3.8l-3.1,2.3L108.9,105z
		 M123.5,101.1l-3-2.2l-3.1,2.2l1.2-3.6l-3.1-2.3h3.8l1.2-3.5l1.1,3.5h3.8l-3.1,2.3L123.5,101.1z M122.3,46.4l1.2,3.6l-3-2.2
		l-3.1,2.2l1.2-3.6l-3.1-2.3h3.8l1.2-3.6l1.1,3.6h3.8L122.3,46.4z M134.3,90.5l-3-2.2l-3,2.2l1.2-3.6l-3.1-2.3h3.8l1.1-3.6l1.1,3.6
		h3.8l-3.1,2.3L134.3,90.5z M138.3,75.4l-3.1-2.2l-3,2.2l1.2-3.6l-3.1-2.3h3.8l1.1-3.6l1.1,3.6h3.8l-3.1,2.3L138.3,75.4z"/>
	<g>
		<path d="M190,50.4V30.8h14v1.7v1.8h-9.9v4.5h8.6v1.7v1.7h-8.6v8.3h-2H190z"/>
		<path d="M206.5,30.6h3.9v3.6h-3.9V30.6z M206.6,35.9h1.9h1.9v14.5h-1.9h-1.9V35.9z"/>
		<path d="M214,35.9h1.8h1.8V38c0.2-0.3,0.3-0.5,0.5-0.7c0.9-1.2,2.3-1.8,4.1-1.8c1.5,0,2.7,0.5,3.6,1.4c0.9,0.9,1.3,2.2,1.3,3.8
			v9.8h-1.9h-1.9v-9.1c0-0.9-0.2-1.6-0.6-2c-0.4-0.4-1-0.6-1.8-0.6c-1,0-1.8,0.3-2.3,0.9c-0.5,0.6-0.8,1.5-0.8,2.6v8.2h-1.9H214
			V35.9z"/>
		<path d="M234.2,50.8c-1.3,0-2.4-0.4-3.2-1.2c-0.8-0.8-1.2-1.8-1.2-3c0-1.3,0.4-2.4,1.1-3.2c0.7-0.8,1.8-1.3,3.2-1.5l2.5-0.3
			c0.7-0.1,1.2-0.2,1.6-0.5c0.2-0.1,0.3-0.2,0.4-0.5c0.1-0.2,0.1-0.5,0.1-0.7c-0.1-0.4-0.3-0.7-0.6-1c-0.4-0.3-1.1-0.4-1.9-0.4
			c-0.7,0-1.3,0.2-1.7,0.5s-0.6,0.9-0.7,1.5h-3.7c0.1-1.7,0.7-3,1.7-3.8s2.7-1.3,4.7-1.3c1.8,0,3.2,0.4,4.3,1.1
			c1,0.8,1.6,1.8,1.6,3.1v8.1c0,0.7,0.1,1.1,0.2,1.4c0.1,0.3,0.3,0.5,0.6,0.6v0v0.5h-2.1h-2.1v0c-0.2-0.6-0.3-1.2-0.3-1.7l0,0
			C237.7,50.1,236.1,50.8,234.2,50.8z M238.8,45v-1.7c-0.4,0.2-1,0.5-1.8,0.6l-1.4,0.3c-0.7,0.1-1.2,0.4-1.5,0.7
			c-0.3,0.3-0.5,0.8-0.5,1.3c0,0.6,0.2,1,0.5,1.4c0.3,0.3,0.7,0.5,1.3,0.5c1.2,0,2.2-0.4,2.9-1.3c0.1-0.2,0.3-0.4,0.4-0.7
			C238.8,45.7,238.8,45.4,238.8,45z"/>
		<path d="M246,35.9h1.8h1.8V38c0.2-0.3,0.3-0.5,0.5-0.7c0.9-1.2,2.3-1.8,4.1-1.8c1.5,0,2.7,0.5,3.6,1.4c0.9,0.9,1.3,2.2,1.3,3.8
			v9.8h-1.9h-1.9v-9.1c0-0.9-0.2-1.6-0.6-2c-0.4-0.4-1-0.6-1.8-0.6c-1,0-1.8,0.3-2.3,0.9c-0.5,0.6-0.8,1.5-0.8,2.6v8.2h-1.9H246
			V35.9z"/>
		<path d="M275.2,45c-0.2,1.8-0.9,3.2-2,4.2s-2.6,1.5-4.5,1.5c-2.2,0-3.9-0.7-5.1-2c-1.2-1.3-1.8-3.2-1.8-5.6c0-2.4,0.6-4.3,1.9-5.6
			c1.2-1.4,2.9-2.1,5-2.1c1.9,0,3.4,0.5,4.6,1.5c1.2,1,1.8,2.4,1.9,4.1h-3.9c0-0.7-0.3-1.3-0.8-1.8c-0.5-0.4-1.1-0.7-1.8-0.7
			c-1,0-1.7,0.4-2.2,1.2c-0.5,0.8-0.8,1.9-0.8,3.4c0,1.4,0.3,2.5,0.8,3.3c0.5,0.8,1.2,1.1,2.2,1.1c0.7,0,1.3-0.2,1.8-0.7
			c0.5-0.5,0.8-1.1,0.8-1.9H275.2z"/>
		<path d="M278,30.6h3.9v3.6H278V30.6z M278.1,35.9h1.9h1.9v14.5H280h-1.9V35.9z"/>
		<path d="M289,50.8c-1.3,0-2.4-0.4-3.2-1.2c-0.8-0.8-1.2-1.8-1.2-3c0-1.3,0.4-2.4,1.1-3.2c0.7-0.8,1.8-1.3,3.2-1.5l2.5-0.3
			c0.7-0.1,1.2-0.2,1.6-0.5c0.2-0.1,0.3-0.2,0.4-0.5c0.1-0.2,0.1-0.5,0.1-0.7c-0.1-0.4-0.3-0.7-0.6-1c-0.4-0.3-1.1-0.4-1.9-0.4
			c-0.7,0-1.3,0.2-1.7,0.5s-0.6,0.9-0.7,1.5H285c0.1-1.7,0.7-3,1.7-3.8s2.7-1.3,4.7-1.3c1.8,0,3.2,0.4,4.3,1.1
			c1,0.8,1.6,1.8,1.6,3.1v8.1c0,0.7,0.1,1.1,0.2,1.4c0.1,0.3,0.3,0.5,0.6,0.6v0v0.5h-2.1H294v0c-0.2-0.6-0.3-1.2-0.3-1.7l0,0
			C292.5,50.1,290.9,50.8,289,50.8z M293.6,45v-1.7c-0.4,0.2-1,0.5-1.8,0.6l-1.4,0.3c-0.7,0.1-1.2,0.4-1.5,0.7
			c-0.3,0.3-0.5,0.8-0.5,1.3c0,0.6,0.2,1,0.5,1.4c0.3,0.3,0.7,0.5,1.3,0.5c1.2,0,2.2-0.4,2.9-1.3c0.1-0.2,0.3-0.4,0.4-0.7
			C293.6,45.7,293.6,45.4,293.6,45z"/>
		<path d="M306.1,50.8c-1.9,0-3.3-0.7-4.5-2.2c-1.1-1.4-1.7-3.3-1.7-5.7c0-2.2,0.6-4,1.7-5.4s2.6-2,4.5-2c1.6,0,3,0.7,4,2.1l0.2,0.2
			v-7h1.9h1.9v19.6h-1.9h-1.9v-1.9l-0.1,0.1C309.2,50.1,307.8,50.8,306.1,50.8z M307.1,38.8c-1,0-1.8,0.4-2.4,1.2
			c-0.6,0.8-0.9,1.9-0.9,3.3c0,1.4,0.3,2.4,0.9,3.2c0.6,0.8,1.4,1.2,2.4,1.2c1,0,1.8-0.4,2.4-1.2c0.6-0.8,0.9-1.9,0.9-3.4
			c0-1.3-0.3-2.4-0.9-3.1C308.9,39.2,308.1,38.8,307.1,38.8z"/>
		<path d="M318.6,48.7c-1.3-1.4-2-3.2-2-5.5c0-2.4,0.7-4.3,2-5.6s3.1-2.1,5.4-2.1c2.3,0,4.1,0.7,5.4,2.1c1.3,1.4,2,3.3,2,5.6
			c0,2.3-0.7,4.2-2,5.5c-1.3,1.4-3.2,2-5.4,2C321.8,50.8,320,50.1,318.6,48.7z M326.6,46.5c0.6-0.7,0.9-1.8,0.9-3.3
			c0-1.5-0.3-2.6-0.9-3.3s-1.5-1.1-2.6-1.1s-2,0.4-2.6,1.1s-0.9,1.9-0.9,3.3c0,1.4,0.3,2.5,0.9,3.3c0.6,0.7,1.5,1.1,2.6,1.1
			S326.1,47.2,326.6,46.5z"/>
		<path d="M341.7,35.9h1.8h1.8V38l0.3-0.4c1-1.5,2.4-2.2,4.1-2.2c1.8,0,3.3,0.7,4.4,2s1.7,3.2,1.7,5.4c0,2.4-0.6,4.3-1.7,5.7
			s-2.6,2.2-4.4,2.2c-1.7,0-3-0.7-4.1-2l-0.1-0.1v7.5h-1.9h-1.9V35.9z M348.6,47.6c1,0,1.8-0.4,2.4-1.2c0.6-0.8,0.9-1.8,0.9-3.2
			c0-1.4-0.3-2.5-0.9-3.3c-0.6-0.8-1.4-1.2-2.4-1.2c-1,0-1.8,0.4-2.4,1.2c-0.6,0.8-0.9,1.9-0.9,3.4c0,1.3,0.3,2.4,0.9,3.1
			C346.8,47.3,347.6,47.6,348.6,47.6z"/>
		<path d="M364.3,50.8c-2.2,0-3.9-0.7-5.1-2s-1.8-3.3-1.8-5.8c0-2.3,0.6-4.1,1.8-5.5s2.9-2,5.1-2c2.2,0,3.9,0.7,5.1,2
			c1.2,1.3,1.8,3.2,1.8,5.7c0,0.3,0,0.6-0.1,0.9h-9.9c0.1,1.1,0.3,2,0.8,2.6c0.5,0.7,1.4,1.1,2.7,1.1c0.6,0,1.1-0.2,1.6-0.5
			c0.5-0.3,0.8-0.7,0.9-1.2h3.9c-0.3,1.5-1.1,2.6-2.3,3.5C367.6,50.4,366.1,50.8,364.3,50.8z M367.2,41.6c-0.1-0.9-0.3-1.6-0.7-2
			c-0.5-0.7-1.3-1-2.3-1c-1,0-1.7,0.4-2.3,1.1c-0.3,0.5-0.6,1.1-0.7,1.9H367.2z"/>
		<path d="M373.8,30.8h1.9h1.9v19.6h-1.9h-1.9V30.8z"/>
		<path d="M384.8,50.8c-1.3,0-2.4-0.4-3.2-1.2c-0.8-0.8-1.2-1.8-1.2-3c0-1.3,0.4-2.4,1.1-3.2c0.7-0.8,1.8-1.3,3.2-1.5l2.5-0.3
			c0.7-0.1,1.2-0.2,1.6-0.5c0.2-0.1,0.3-0.2,0.4-0.5c0.1-0.2,0.1-0.5,0.1-0.7c-0.1-0.4-0.3-0.7-0.6-1c-0.4-0.3-1.1-0.4-1.9-0.4
			c-0.7,0-1.3,0.2-1.7,0.5s-0.6,0.9-0.7,1.5h-3.7c0.1-1.7,0.7-3,1.7-3.8s2.7-1.3,4.7-1.3c1.8,0,3.2,0.4,4.3,1.1
			c1,0.8,1.6,1.8,1.6,3.1v8.1c0,0.7,0.1,1.1,0.2,1.4c0.1,0.3,0.3,0.5,0.6,0.6v0v0.5h-2.1h-2.1v0c-0.2-0.6-0.3-1.2-0.3-1.7l0,0
			C388.3,50.1,386.7,50.8,384.8,50.8z M389.4,45v-1.7c-0.4,0.2-1,0.5-1.8,0.6l-1.4,0.3c-0.7,0.1-1.2,0.4-1.5,0.7
			c-0.3,0.3-0.5,0.8-0.5,1.3c0,0.6,0.2,1,0.5,1.4c0.3,0.3,0.7,0.5,1.3,0.5c1.2,0,2.2-0.4,2.9-1.3c0.1-0.2,0.3-0.4,0.4-0.7
			C389.4,45.7,389.4,45.4,389.4,45z"/>
		<path d="M205.7,75.9c0,2.8-0.6,4.8-1.9,6.1s-3.3,1.9-6.1,1.9c-2.7,0-4.7-0.6-6-1.9s-1.9-3.3-2-6V63.6h2h2.1V76
			c0,1.4,0.3,2.5,1,3.2c0.6,0.7,1.6,1.1,2.9,1.1c1.4,0,2.4-0.3,2.9-1c0.6-0.6,0.9-1.7,0.9-3.3V63.6h2h2.1V75.9z"/>
		<path d="M209.5,68.7h1.8h1.8v2.2c0.2-0.3,0.3-0.5,0.5-0.7c0.9-1.2,2.3-1.8,4.1-1.8c1.5,0,2.7,0.5,3.6,1.4c0.9,0.9,1.3,2.2,1.3,3.8
			v9.8h-1.9h-1.9v-9.1c0-0.9-0.2-1.6-0.6-2c-0.4-0.4-1-0.6-1.8-0.6c-1,0-1.8,0.3-2.3,0.9c-0.5,0.6-0.8,1.5-0.8,2.6v8.2h-1.9h-1.9
			V68.7z"/>
		<path d="M226.3,63.5h3.9V67h-3.9V63.5z M226.3,68.7h1.9h1.9v14.5h-1.9h-1.9V68.7z"/>
		<path d="M237.3,83.6c-1.3,0-2.4-0.4-3.2-1.2c-0.8-0.8-1.2-1.8-1.2-3c0-1.3,0.4-2.4,1.1-3.2c0.7-0.8,1.8-1.3,3.2-1.5l2.5-0.3
			c0.7-0.1,1.2-0.2,1.6-0.5c0.2-0.1,0.3-0.2,0.4-0.5c0.1-0.2,0.1-0.5,0.1-0.7c-0.1-0.4-0.3-0.7-0.6-1c-0.4-0.3-1.1-0.4-1.9-0.4
			c-0.7,0-1.3,0.2-1.7,0.5s-0.6,0.9-0.7,1.5h-3.7c0.1-1.7,0.7-3,1.7-3.8s2.7-1.3,4.7-1.3c1.8,0,3.2,0.4,4.3,1.1
			c1,0.8,1.6,1.8,1.6,3.1v8.1c0,0.7,0.1,1.1,0.2,1.4c0.1,0.3,0.3,0.5,0.6,0.6v0v0.5h-2.1h-2.1v0c-0.2-0.6-0.3-1.2-0.3-1.7l0,0
			C240.7,82.9,239.2,83.6,237.3,83.6z M234.6,66.5c0.2-1,0.5-1.9,1.1-2.5c0.6-0.6,1.3-0.9,2.2-0.9c0.2,0,0.5,0.1,0.9,0.2
			c0.4,0.1,0.8,0.3,1.2,0.4c0.3,0.1,0.6,0.2,0.9,0.3c0.3,0.1,0.6,0.1,0.8,0.1c0.2,0,0.5-0.1,0.7-0.3c0.2-0.2,0.4-0.5,0.5-0.8h1.7
			c-0.1,1-0.5,1.9-1,2.5c-0.5,0.6-1.2,0.9-2,0.9c-0.2,0-0.5-0.1-1-0.2c-0.5-0.1-1-0.3-1.4-0.4c-0.3-0.1-0.7-0.2-1-0.3
			c-0.3-0.1-0.6-0.1-0.7-0.1c-0.3,0-0.5,0.1-0.7,0.3c-0.2,0.2-0.4,0.5-0.5,0.8H234.6z M241.9,77.9v-1.7c-0.4,0.2-1,0.5-1.8,0.6
			l-1.4,0.3c-0.7,0.1-1.2,0.4-1.5,0.7c-0.3,0.3-0.5,0.8-0.5,1.3c0,0.6,0.2,1,0.5,1.4c0.3,0.3,0.7,0.5,1.3,0.5c1.2,0,2.2-0.4,2.9-1.3
			c0.1-0.2,0.3-0.4,0.4-0.7C241.8,78.5,241.9,78.2,241.9,77.9z"/>
		<path d="M250.2,81.6c-1.3-1.4-2-3.2-2-5.5c0-2.4,0.7-4.3,2-5.6s3.1-2.1,5.4-2.1c2.3,0,4.1,0.7,5.4,2.1c1.3,1.4,2,3.3,2,5.6
			c0,2.3-0.7,4.2-2,5.5c-1.3,1.4-3.2,2-5.4,2C253.3,83.6,251.5,83,250.2,81.6z M258.2,79.3c0.6-0.7,0.9-1.8,0.9-3.3
			c0-1.5-0.3-2.6-0.9-3.3s-1.5-1.1-2.6-1.1s-2,0.4-2.6,1.1s-0.9,1.9-0.9,3.3c0,1.4,0.3,2.5,0.9,3.3c0.6,0.7,1.5,1.1,2.6,1.1
			S257.6,80.1,258.2,79.3z"/>
		<path d="M273.6,83.3V63.6h14.5v1.7v1.8h-10.4v4.2h9.6V73v1.7h-9.6v5.1h10.8v1.7v1.8H273.6z"/>
		<path d="M295.5,77.8c0,0.9,0.2,1.6,0.6,2c0.4,0.4,1,0.6,1.8,0.6c1,0,1.8-0.3,2.3-0.9c0.5-0.6,0.8-1.5,0.8-2.6v-8.2h1.9h1.9v14.5
			h-1.8h-1.8v-2.2c-0.1,0.3-0.3,0.5-0.5,0.7c-0.9,1.2-2.3,1.8-4.1,1.8c-1.5,0-2.7-0.5-3.6-1.4c-0.9-0.9-1.3-2.2-1.3-3.8v-9.8h1.9
			h1.9V77.8z"/>
		<path d="M308.3,68.7h1.8h1.8v2.6c0.1-0.3,0.3-0.6,0.5-0.8c0.9-1.4,2.1-2.2,3.5-2.2l0.9,0v3.9c-0.3,0-0.7-0.1-1.1-0.1
			c-1.2,0-2,0.3-2.6,0.9c-0.6,0.6-0.9,1.5-0.9,2.6v7.6h-1.9h-1.9V68.7z"/>
		<path d="M320.1,81.6c-1.3-1.4-2-3.2-2-5.5c0-2.4,0.7-4.3,2-5.6s3.1-2.1,5.4-2.1c2.3,0,4.1,0.7,5.4,2.1c1.3,1.4,2,3.3,2,5.6
			c0,2.3-0.7,4.2-2,5.5c-1.3,1.4-3.2,2-5.4,2C323.3,83.6,321.5,83,320.1,81.6z M328.2,79.3c0.6-0.7,0.9-1.8,0.9-3.3
			c0-1.5-0.3-2.6-0.9-3.3s-1.5-1.1-2.6-1.1s-2,0.4-2.6,1.1s-0.9,1.9-0.9,3.3c0,1.4,0.3,2.5,0.9,3.3c0.6,0.7,1.5,1.1,2.6,1.1
			S327.6,80.1,328.2,79.3z"/>
		<path d="M335.6,68.7h1.8h1.8v2.2l0.3-0.4c1-1.5,2.4-2.2,4.1-2.2c1.8,0,3.3,0.7,4.4,2s1.7,3.2,1.7,5.4c0,2.4-0.6,4.3-1.7,5.7
			s-2.6,2.2-4.4,2.2c-1.7,0-3-0.7-4.1-2l-0.1-0.1V89h-1.9h-1.9V68.7z M342.5,80.5c1,0,1.8-0.4,2.4-1.2c0.6-0.8,0.9-1.8,0.9-3.2
			c0-1.4-0.3-2.5-0.9-3.3c-0.6-0.8-1.4-1.2-2.4-1.2c-1,0-1.8,0.4-2.4,1.2c-0.6,0.8-0.9,1.9-0.9,3.4c0,1.3,0.3,2.4,0.9,3.1
			C340.7,80.1,341.5,80.5,342.5,80.5z"/>
		<path d="M358.2,83.6c-2.2,0-3.9-0.7-5.1-2s-1.8-3.3-1.8-5.8c0-2.3,0.6-4.1,1.8-5.5s2.9-2,5.1-2c2.2,0,3.9,0.7,5.1,2
			c1.2,1.3,1.8,3.2,1.8,5.7c0,0.3,0,0.6-0.1,0.9h-9.9c0.1,1.1,0.3,2,0.8,2.6c0.5,0.7,1.4,1.1,2.7,1.1c0.6,0,1.1-0.2,1.6-0.5
			c0.5-0.3,0.8-0.7,0.9-1.2h3.9c-0.3,1.5-1.1,2.6-2.3,3.5C361.5,83.2,360,83.6,358.2,83.6z M361.1,74.5c-0.1-0.9-0.3-1.6-0.7-2
			c-0.5-0.7-1.3-1-2.3-1c-1,0-1.7,0.4-2.3,1.1c-0.3,0.5-0.6,1.1-0.7,1.9H361.1z"/>
		<path d="M367.7,63.5h3.9V67h-3.9V63.5z M367.8,68.7h1.9h1.9v14.5h-1.9h-1.9V68.7z"/>
		<path d="M378.7,83.6c-1.3,0-2.4-0.4-3.2-1.2c-0.8-0.8-1.2-1.8-1.2-3c0-1.3,0.4-2.4,1.1-3.2c0.7-0.8,1.8-1.3,3.2-1.5l2.5-0.3
			c0.7-0.1,1.2-0.2,1.6-0.5c0.2-0.1,0.3-0.2,0.4-0.5c0.1-0.2,0.1-0.5,0.1-0.7c-0.1-0.4-0.3-0.7-0.6-1c-0.4-0.3-1.1-0.4-1.9-0.4
			c-0.7,0-1.3,0.2-1.7,0.5s-0.6,0.9-0.7,1.5h-3.7c0.1-1.7,0.7-3,1.7-3.8s2.7-1.3,4.7-1.3c1.8,0,3.2,0.4,4.3,1.1
			c1,0.8,1.6,1.8,1.6,3.1v8.1c0,0.7,0.1,1.1,0.2,1.4c0.1,0.3,0.3,0.5,0.6,0.6v0v0.5h-2.1h-2.1v0c-0.2-0.6-0.3-1.2-0.3-1.7l0,0
			C382.2,82.9,380.6,83.6,378.7,83.6z M383.3,77.9v-1.7c-0.4,0.2-1,0.5-1.8,0.6l-1.4,0.3c-0.7,0.1-1.2,0.4-1.5,0.7
			c-0.3,0.3-0.5,0.8-0.5,1.3c0,0.6,0.2,1,0.5,1.4c0.3,0.3,0.7,0.5,1.3,0.5c1.2,0,2.2-0.4,2.9-1.3c0.1-0.2,0.3-0.4,0.4-0.7
			C383.3,78.5,383.3,78.2,383.3,77.9z"/>
		<path d="M192,112.1h-1.1h-1.1V94.8h1.4h1.4l8.6,14v-14h1.1h1.1v17.2h-1.3h-1.3L192,98V112.1z"/>
		<path d="M211.9,112.4c-1.8,0-3.2-0.6-4.2-1.7s-1.5-2.7-1.5-4.7c0-2.1,0.5-3.8,1.6-5s2.5-1.9,4.3-1.9c1.6,0,3,0.6,4,1.8
			s1.5,2.8,1.5,4.8l0,0.8h-9.2c0.1,1.3,0.4,2.2,0.9,2.9c0.6,0.8,1.5,1.2,2.8,1.2c0.8,0,1.5-0.2,2.1-0.7c0.6-0.5,1-1,1.1-1.7h2.1
			c-0.3,1.4-0.9,2.4-1.9,3.1C214.6,112.1,213.4,112.4,211.9,112.4z M215.5,104.8c-0.1-1.2-0.4-2.1-0.9-2.7c-0.6-0.7-1.4-1.1-2.5-1.1
			c-1.1,0-2,0.4-2.7,1.2c-0.5,0.6-0.8,1.5-1,2.6H215.5z"/>
		<path d="M223.3,105.6l-4.2-6.1h1.4h1.4l2.9,4.5l2.9-4.5h1.3h1.3l-4.2,6.1l4.4,6.4h-1.3h-1.3l-3.1-4.8l-3.1,4.8h-1.3h-1.3
			L223.3,105.6z"/>
		<path d="M236.8,112.1c-0.7,0.1-1.2,0.2-1.6,0.2c-0.9,0-1.6-0.2-2-0.6c-0.4-0.4-0.6-1.1-0.6-2.1v-8.3H231v-1.7h1.7V96h2.1v3.5h2
			v1.7h-2v8.3c0,0.3,0.1,0.5,0.3,0.7c0.2,0.2,0.5,0.2,0.9,0.2h0.8V112.1z"/>
		<path d="M246.5,112.6c-2.4,0-4.3-0.8-5.8-2.5c-1.5-1.7-2.2-3.9-2.2-6.6c0-2.7,0.8-4.9,2.3-6.6c1.5-1.7,3.5-2.5,5.9-2.5
			c1.9,0,3.5,0.5,4.9,1.6c1.4,1.1,2.2,2.4,2.4,4.1h-2.3c-0.2-1.1-0.8-2-1.7-2.6c-0.9-0.6-2-0.9-3.5-0.9c-1.7,0-3,0.7-4.1,2
			s-1.6,3-1.6,5.1c0,2.2,0.5,4,1.5,5.2s2.4,1.8,4.3,1.8c1.8,0,3.2-0.6,4.3-1.9c0.2-0.2,0.3-0.4,0.5-0.6c0.2-0.3,0.3-0.7,0.5-1.3
			c0.1-0.5,0.2-1.1,0.2-1.6v-0.2h-5.4v-2h7.5v9.1h-1.5l-0.6-2.2l-0.1,0.2C250.6,111.7,248.8,112.6,246.5,112.6z"/>
		<path d="M262.7,112.4c-1.8,0-3.2-0.6-4.2-1.7s-1.5-2.7-1.5-4.7c0-2.1,0.5-3.8,1.6-5s2.5-1.9,4.3-1.9c1.6,0,3,0.6,4,1.8
			s1.5,2.8,1.5,4.8l0,0.8h-9.2c0.1,1.3,0.4,2.2,0.9,2.9c0.6,0.8,1.5,1.2,2.8,1.2c0.8,0,1.5-0.2,2.1-0.7c0.6-0.5,1-1,1.1-1.7h2.1
			c-0.3,1.4-0.9,2.4-1.9,3.1C265.3,112.1,264.1,112.4,262.7,112.4z M266.2,104.8c-0.1-1.2-0.4-2.1-0.9-2.7c-0.6-0.7-1.4-1.1-2.5-1.1
			c-1.1,0-2,0.4-2.7,1.2c-0.5,0.6-0.8,1.5-1,2.6H266.2z"/>
		<path d="M270.9,99.5h1h1v1.9l0.5-0.6c0.9-1.1,2.1-1.6,3.4-1.6c1.4,0,2.5,0.4,3.2,1.1c0.8,0.8,1.1,1.8,1.1,3.2v8.6h-1.1H279v-7.9
			c0-1.1-0.2-1.9-0.6-2.4c-0.4-0.5-1.1-0.7-2.1-0.7c-1,0-1.8,0.4-2.4,1.2c-0.6,0.8-0.9,1.8-0.9,3.1v6.7H272h-1.1V99.5z"/>
		<path d="M289.4,112.4c-1.8,0-3.2-0.6-4.2-1.7s-1.5-2.7-1.5-4.7c0-2.1,0.5-3.8,1.6-5s2.5-1.9,4.3-1.9c1.6,0,3,0.6,4,1.8
			s1.5,2.8,1.5,4.8l0,0.8h-9.2c0.1,1.3,0.4,2.2,0.9,2.9c0.6,0.8,1.5,1.2,2.8,1.2c0.8,0,1.5-0.2,2.1-0.7c0.6-0.5,1-1,1.1-1.7h2.1
			c-0.3,1.4-0.9,2.4-1.9,3.1C292.1,112.1,290.8,112.4,289.4,112.4z M292.9,104.8c-0.1-1.2-0.4-2.1-0.9-2.7c-0.6-0.7-1.4-1.1-2.5-1.1
			c-1.1,0-2,0.4-2.7,1.2c-0.5,0.6-0.8,1.5-1,2.6H292.9z"/>
		<path d="M297.9,99.5h1h1v2.1c0.2-0.3,0.4-0.6,0.6-0.9c0.8-1.1,1.8-1.6,2.9-1.6c0.2,0,0.4,0,0.6,0.1v2.2l-0.4,0c-1.1,0-2,0.3-2.6,1
			c-0.6,0.7-0.9,1.7-0.9,2.9v6.7H299h-1.1V99.5z"/>
		<path d="M308.9,112.4c-1.2,0-2.2-0.3-2.9-1c-0.7-0.7-1.1-1.5-1.1-2.7c0-1.1,0.3-2,1-2.7c0.7-0.7,1.7-1.1,3-1.2l2.9-0.4
			c0.2,0,0.5-0.1,0.7-0.1c0.3-0.1,0.5-0.2,0.6-0.4c0.1-0.2,0.2-0.5,0.2-0.8V103c0-0.7-0.3-1.2-0.8-1.6c-0.5-0.4-1.2-0.6-2.1-0.6
			c-0.9,0-1.5,0.2-2,0.6c-0.5,0.4-0.8,1-0.9,1.8h-1.9c0.1-1.4,0.6-2.4,1.5-3.1c0.9-0.7,2.1-1,3.7-1c1.5,0,2.7,0.3,3.5,1
			c0.8,0.7,1.2,1.6,1.2,2.9v6.9c0,0.2,0.1,0.4,0.2,0.5s0.3,0.2,0.5,0.2c0.1,0,0.2,0,0.3,0s0.3,0,0.4-0.1v1.5
			c-0.2,0.1-0.4,0.1-0.6,0.2c-0.2,0-0.4,0.1-0.6,0.1c-0.8,0-1.4-0.2-1.7-0.7c-0.2-0.3-0.4-0.7-0.5-1.2c-0.2,0.2-0.3,0.4-0.5,0.6
			C311.7,112,310.4,112.4,308.9,112.4z M313.3,107.1v-1.4c-0.4,0.2-0.8,0.3-1.3,0.4l-1.9,0.3c-1,0.1-1.8,0.4-2.2,0.7
			s-0.7,0.8-0.7,1.4c0,0.7,0.2,1.2,0.6,1.6c0.4,0.4,0.9,0.6,1.6,0.6c1.1,0,2-0.3,2.8-0.9c0.5-0.4,0.9-0.9,1-1.4
			c0-0.1,0.1-0.3,0.1-0.5C313.3,107.6,313.3,107.4,313.3,107.1z"/>
		<path d="M323.6,112.1c-0.7,0.1-1.2,0.2-1.6,0.2c-0.9,0-1.6-0.2-2-0.6c-0.4-0.4-0.6-1.1-0.6-2.1v-8.3h-1.7v-1.7h1.7V96h2.1v3.5h2
			v1.7h-2v8.3c0,0.3,0.1,0.5,0.3,0.7c0.2,0.2,0.5,0.2,0.9,0.2h0.8V112.1z"/>
		<path d="M325.7,94.8h2.2v2.4h-2.2V94.8z M325.7,99.5h1.1h1.1v12.5h-1.1h-1.1V99.5z"/>
		<path d="M331.9,110.6c-1.1-1.2-1.6-2.8-1.6-4.8c0-2,0.5-3.6,1.6-4.8s2.5-1.8,4.2-1.8c1.8,0,3.2,0.6,4.2,1.8s1.6,2.8,1.6,4.8
			c0,2-0.5,3.6-1.6,4.8s-2.5,1.8-4.2,1.8C334.4,112.4,333,111.8,331.9,110.6z M338.7,109.3c0.7-0.9,1-2,1-3.5s-0.3-2.6-1-3.5
			c-0.7-0.9-1.5-1.3-2.7-1.3s-2,0.4-2.6,1.3c-0.7,0.9-1,2-1,3.5s0.3,2.6,1,3.5c0.7,0.9,1.5,1.3,2.6,1.3S338.1,110.2,338.7,109.3z"/>
		<path d="M344.3,99.5h1h1v1.9l0.5-0.6c0.9-1.1,2.1-1.6,3.4-1.6c1.4,0,2.5,0.4,3.2,1.1c0.8,0.8,1.1,1.8,1.1,3.2v8.6h-1.1h-1.1v-7.9
			c0-1.1-0.2-1.9-0.6-2.4c-0.4-0.5-1.1-0.7-2.1-0.7c-1,0-1.8,0.4-2.4,1.2c-0.6,0.8-0.9,1.8-0.9,3.1v6.7h-1.1h-1.1V99.5z"/>
		<path d="M358.2,112.1V94.8h12.6v1v1h-10.3v5.3h9.4v1v1h-9.4v5.8h10.4v1v1H358.2z"/>
		<path d="M387.6,105.8c0,2.1-0.6,3.8-1.8,5s-2.9,1.8-5,1.8c-2.2,0-3.9-0.6-5.1-1.7s-1.7-2.8-1.7-5.1V94.8h1.2h1.2v10.7
			c0,1.6,0.4,2.8,1.1,3.7c0.8,0.8,1.9,1.2,3.3,1.2s2.6-0.4,3.3-1.2c0.8-0.8,1.1-2.1,1.1-3.7V94.8h1.2h1.2V105.8z"/>
	</g>
</g>
</svg>
