<svg width="328" height="62" viewBox="0 0 328 62" fill="none" xmlns="http://www.w3.org/2000/svg">
<path d="M29.8421 14.358C33.1383 14.358 35.8105 11.7282 35.8105 8.48428C35.8105 5.24033 33.1383 2.6106 29.8421 2.6106C26.5458 2.6106 23.8737 5.24033 23.8737 8.48428C23.8737 11.7282 26.5458 14.358 29.8421 14.358Z" stroke="#0902A2" stroke-width="2" stroke-linejoin="round"/>
<path d="M23.7661 31.8963C24.1066 29.8149 24.2592 27.8026 23.7074 26.4115C23.2377 25.2152 22.2161 24.5456 20.9832 24.0892L10.1184 20.6385C8.70934 20.1775 7.39306 19.4054 7.3003 17.8794C7.18288 15.9202 8.94418 14.6524 10.7055 15.1134C10.7055 15.1134 21.0384 18.7023 29.8449 18.7023C38.6514 18.7023 48.8669 15.1295 48.8669 15.1295C50.9804 14.5533 52.3895 16.1668 52.3895 17.8714C52.3895 19.5091 51.0979 20.0853 49.5714 20.6305L39.2385 24.3081C38.2991 24.6539 36.7727 25.3454 36.1856 26.4034C35.481 27.6424 35.5985 29.8068 35.939 31.8882L36.6317 35.3031L41.0244 54.1928C41.3532 55.7084 40.2847 57.1248 38.7465 57.3899C37.2083 57.655 35.9507 56.6246 35.4951 55.1586L31.0848 41.7975C30.8727 41.1567 30.6848 40.5086 30.5212 39.8533L29.8449 37.1471L29.2226 39.6423C29.0253 40.4376 28.7983 41.2244 28.5415 42.0027L24.2087 55.1471C23.7391 56.6281 22.5062 57.6538 20.968 57.3899C19.4298 57.126 18.3378 55.5931 18.683 54.1928L23.0733 35.3112L23.7661 31.8963Z" stroke="#0902A2" stroke-width="2" stroke-linejoin="round"/>
<path d="M75.2 30.04C74.84 30.04 74.5267 30.0133 74.26 29.96C73.9933 29.92 73.76 29.8733 73.56 29.82V27.68C73.76 27.7333 73.9733 27.78 74.2 27.82C74.4133 27.86 74.6467 27.88 74.9 27.88C75.26 27.88 75.5667 27.8133 75.82 27.68C76.0867 27.5467 76.2867 27.3 76.42 26.94C76.5667 26.58 76.64 26.0667 76.64 25.4V11.72H79.34V25.34C79.34 26.46 79.1667 27.36 78.82 28.04C78.4733 28.7333 77.9867 29.24 77.36 29.56C76.7467 29.88 76.0267 30.04 75.2 30.04ZM91.717 20.56C91.717 21.4667 91.6037 22.2667 91.377 22.96C91.1504 23.6533 90.817 24.2467 90.377 24.74C89.9504 25.22 89.4304 25.5867 88.817 25.84C88.2037 26.08 87.517 26.2 86.757 26.2C86.0504 26.2 85.3904 26.08 84.777 25.84C84.177 25.5867 83.657 25.22 83.217 24.74C82.7904 24.2467 82.457 23.6533 82.217 22.96C81.977 22.2667 81.857 21.4667 81.857 20.56C81.857 19.36 82.0504 18.3467 82.437 17.52C82.837 16.68 83.4104 16.0467 84.157 15.62C84.9037 15.18 85.7904 14.96 86.817 14.96C87.777 14.96 88.6237 15.18 89.357 15.62C90.0904 16.0467 90.6637 16.68 91.077 17.52C91.5037 18.3467 91.717 19.36 91.717 20.56ZM84.557 20.56C84.557 21.32 84.637 21.9733 84.797 22.52C84.957 23.0533 85.197 23.46 85.517 23.74C85.8504 24.02 86.277 24.16 86.797 24.16C87.317 24.16 87.737 24.02 88.057 23.74C88.3904 23.46 88.6304 23.0533 88.777 22.52C88.937 21.9733 89.017 21.32 89.017 20.56C89.017 19.7867 88.937 19.14 88.777 18.62C88.617 18.0867 88.3704 17.6867 88.037 17.42C87.717 17.14 87.297 17 86.777 17C85.9904 17 85.4237 17.3067 85.077 17.92C84.7304 18.5333 84.557 19.4133 84.557 20.56ZM99.5777 14.96C99.7643 14.96 99.9577 14.9667 100.158 14.98C100.358 14.9933 100.524 15.02 100.658 15.06L100.418 17.4C100.284 17.3733 100.124 17.3533 99.9377 17.34C99.7643 17.3133 99.5777 17.3 99.3777 17.3C99.0443 17.3 98.7177 17.3667 98.3977 17.5C98.0777 17.62 97.791 17.8067 97.5377 18.06C97.2843 18.3 97.0777 18.6133 96.9177 19C96.771 19.3867 96.6977 19.8467 96.6977 20.38V26H94.0377V15.16H96.0777L96.4377 17.04H96.5777C96.7777 16.6533 97.0243 16.3067 97.3177 16C97.6243 15.68 97.9643 15.4267 98.3377 15.24C98.7243 15.0533 99.1377 14.96 99.5777 14.96ZM108.097 14.96C109.23 14.96 110.124 15.2733 110.777 15.9C111.43 16.5267 111.757 17.54 111.757 18.94V26H109.097V19.44C109.097 18.6267 108.957 18.02 108.677 17.62C108.397 17.2067 107.957 17 107.357 17C106.464 17 105.857 17.32 105.537 17.96C105.217 18.5867 105.057 19.5 105.057 20.7V26H102.397V15.16H104.437L104.817 16.58H104.917C105.157 16.2067 105.437 15.9 105.757 15.66C106.077 15.42 106.437 15.2467 106.837 15.14C107.237 15.02 107.657 14.96 108.097 14.96ZM118.925 14.96C120.231 14.96 121.231 15.2667 121.925 15.88C122.618 16.48 122.965 17.4267 122.965 18.72V26H121.105L120.585 24.5H120.505C120.211 24.8867 119.911 25.2133 119.605 25.48C119.298 25.7333 118.945 25.9133 118.545 26.02C118.145 26.14 117.665 26.2 117.105 26.2C116.505 26.2 115.965 26.08 115.485 25.84C115.005 25.6 114.625 25.2333 114.345 24.74C114.065 24.2333 113.925 23.6 113.925 22.84C113.925 21.72 114.311 20.88 115.085 20.32C115.858 19.7467 117.018 19.4333 118.565 19.38L120.305 19.32V18.78C120.305 18.0867 120.158 17.5933 119.865 17.3C119.571 17.0067 119.171 16.86 118.665 16.86C118.185 16.86 117.698 16.94 117.205 17.1C116.725 17.26 116.251 17.4467 115.785 17.66L114.965 15.9C115.511 15.62 116.118 15.3933 116.785 15.22C117.451 15.0467 118.165 14.96 118.925 14.96ZM119.185 20.92C118.238 20.96 117.578 21.1533 117.205 21.5C116.831 21.8333 116.645 22.2867 116.645 22.86C116.645 23.3667 116.771 23.7333 117.025 23.96C117.291 24.1867 117.638 24.3 118.065 24.3C118.691 24.3 119.225 24.0933 119.665 23.68C120.105 23.2533 120.325 22.6267 120.325 21.8V20.88L119.185 20.92ZM129.136 26.2C127.976 26.2 127.036 25.7333 126.316 24.8C125.596 23.8533 125.236 22.4533 125.236 20.6C125.236 18.7467 125.603 17.3467 126.336 16.4C127.069 15.44 128.029 14.96 129.216 14.96C129.709 14.96 130.136 15.0333 130.496 15.18C130.869 15.3133 131.189 15.5 131.456 15.74C131.723 15.98 131.956 16.2467 132.156 16.54H132.236C132.209 16.3533 132.176 16.0667 132.136 15.68C132.096 15.2933 132.076 14.9333 132.076 14.6V10.8H134.736V26H132.696L132.196 24.58H132.076C131.903 24.8733 131.683 25.1467 131.416 25.4C131.149 25.64 130.829 25.8333 130.456 25.98C130.083 26.1267 129.643 26.2 129.136 26.2ZM130.016 24.16C130.829 24.16 131.403 23.8933 131.736 23.36C132.069 22.8267 132.236 22.02 132.236 20.94V20.62C132.236 19.4467 132.076 18.5533 131.756 17.94C131.436 17.3267 130.849 17.02 129.996 17.02C129.329 17.02 128.816 17.34 128.456 17.98C128.109 18.6067 127.936 19.4933 127.936 20.64C127.936 21.7867 128.116 22.66 128.476 23.26C128.836 23.86 129.349 24.16 130.016 24.16ZM141.952 14.96C143.259 14.96 144.259 15.2667 144.952 15.88C145.645 16.48 145.992 17.4267 145.992 18.72V26H144.132L143.612 24.5H143.532C143.239 24.8867 142.939 25.2133 142.632 25.48C142.325 25.7333 141.972 25.9133 141.572 26.02C141.172 26.14 140.692 26.2 140.132 26.2C139.532 26.2 138.992 26.08 138.512 25.84C138.032 25.6 137.652 25.2333 137.372 24.74C137.092 24.2333 136.952 23.6 136.952 22.84C136.952 21.72 137.339 20.88 138.112 20.32C138.885 19.7467 140.045 19.4333 141.592 19.38L143.332 19.32V18.78C143.332 18.0867 143.185 17.5933 142.892 17.3C142.599 17.0067 142.199 16.86 141.692 16.86C141.212 16.86 140.725 16.94 140.232 17.1C139.752 17.26 139.279 17.4467 138.812 17.66L137.992 15.9C138.539 15.62 139.145 15.3933 139.812 15.22C140.479 15.0467 141.192 14.96 141.952 14.96ZM142.212 20.92C141.265 20.96 140.605 21.1533 140.232 21.5C139.859 21.8333 139.672 22.2867 139.672 22.86C139.672 23.3667 139.799 23.7333 140.052 23.96C140.319 24.1867 140.665 24.3 141.092 24.3C141.719 24.3 142.252 24.0933 142.692 23.68C143.132 23.2533 143.352 22.6267 143.352 21.8V20.88L142.212 20.92ZM155.943 22.86C155.943 23.58 155.783 24.1933 155.463 24.7C155.143 25.1933 154.67 25.5667 154.043 25.82C153.417 26.0733 152.63 26.2 151.683 26.2C150.963 26.2 150.337 26.1467 149.803 26.04C149.27 25.9333 148.757 25.7667 148.263 25.54V23.4C148.797 23.6533 149.37 23.8667 149.983 24.04C150.61 24.2133 151.177 24.3 151.683 24.3C152.283 24.3 152.717 24.1933 152.983 23.98C153.25 23.7667 153.383 23.48 153.383 23.12C153.383 22.9067 153.323 22.7133 153.203 22.54C153.097 22.3667 152.87 22.1867 152.523 22C152.19 21.8 151.703 21.5533 151.063 21.26C150.437 20.98 149.917 20.7 149.503 20.42C149.09 20.14 148.777 19.8067 148.563 19.42C148.35 19.02 148.243 18.52 148.243 17.92C148.243 16.9467 148.61 16.2133 149.343 15.72C150.09 15.2133 151.063 14.96 152.263 14.96C152.917 14.96 153.523 15.0267 154.083 15.16C154.657 15.28 155.23 15.48 155.803 15.76L155.023 17.62C154.703 17.4733 154.377 17.3467 154.043 17.24C153.723 17.12 153.41 17.0267 153.103 16.96C152.81 16.8933 152.517 16.86 152.223 16.86C151.757 16.86 151.403 16.9467 151.163 17.12C150.923 17.28 150.803 17.5133 150.803 17.82C150.803 18.0333 150.863 18.2267 150.983 18.4C151.103 18.56 151.33 18.7267 151.663 18.9C151.997 19.0733 152.47 19.2933 153.083 19.56C153.697 19.8 154.217 20.06 154.643 20.34C155.07 20.6067 155.39 20.94 155.603 21.34C155.83 21.74 155.943 22.2467 155.943 22.86ZM166.402 26.2C165.242 26.2 164.302 25.7333 163.582 24.8C162.862 23.8533 162.502 22.4533 162.502 20.6C162.502 18.7467 162.868 17.3467 163.602 16.4C164.335 15.44 165.295 14.96 166.482 14.96C166.975 14.96 167.402 15.0333 167.762 15.18C168.135 15.3133 168.455 15.5 168.722 15.74C168.988 15.98 169.222 16.2467 169.422 16.54H169.502C169.475 16.3533 169.442 16.0667 169.402 15.68C169.362 15.2933 169.342 14.9333 169.342 14.6V10.8H172.002V26H169.962L169.462 24.58H169.342C169.168 24.8733 168.948 25.1467 168.682 25.4C168.415 25.64 168.095 25.8333 167.722 25.98C167.348 26.1267 166.908 26.2 166.402 26.2ZM167.282 24.16C168.095 24.16 168.668 23.8933 169.002 23.36C169.335 22.8267 169.502 22.02 169.502 20.94V20.62C169.502 19.4467 169.342 18.5533 169.022 17.94C168.702 17.3267 168.115 17.02 167.262 17.02C166.595 17.02 166.082 17.34 165.722 17.98C165.375 18.6067 165.202 19.4933 165.202 20.64C165.202 21.7867 165.382 22.66 165.742 23.26C166.102 23.86 166.615 24.16 167.282 24.16ZM179.138 14.96C180.071 14.96 180.871 15.16 181.538 15.56C182.218 15.9467 182.744 16.5067 183.118 17.24C183.491 17.96 183.678 18.84 183.678 19.88V21.16H177.038C177.064 22.1467 177.304 22.9133 177.758 23.46C178.224 23.9933 178.878 24.26 179.718 24.26C180.384 24.26 180.978 24.1933 181.498 24.06C182.018 23.9133 182.558 23.7067 183.118 23.44V25.46C182.611 25.7133 182.084 25.9 181.538 26.02C180.991 26.14 180.318 26.2 179.518 26.2C178.504 26.2 177.604 26 176.818 25.6C176.044 25.1867 175.438 24.5667 174.998 23.74C174.558 22.9133 174.338 21.8867 174.338 20.66C174.338 19.42 174.538 18.38 174.938 17.54C175.338 16.6867 175.898 16.0467 176.618 15.62C177.351 15.18 178.191 14.96 179.138 14.96ZM179.178 16.82C178.578 16.82 178.091 17.04 177.718 17.48C177.358 17.9067 177.144 18.5467 177.078 19.4H181.158C181.158 18.8933 181.084 18.4467 180.938 18.06C180.791 17.6733 180.571 17.3733 180.278 17.16C179.998 16.9333 179.631 16.82 179.178 16.82ZM199.355 26L198.255 22.22H193.375L192.275 26H189.395L194.195 11.66H197.415L202.235 26H199.355ZM196.475 16.34C196.421 16.1267 196.348 15.8733 196.255 15.58C196.175 15.2733 196.095 14.96 196.015 14.64C195.948 14.32 195.881 14.02 195.815 13.74C195.761 14.06 195.695 14.38 195.615 14.7C195.535 15.0067 195.455 15.3 195.375 15.58C195.308 15.86 195.241 16.1133 195.175 16.34L194.055 20.02H197.615L196.475 16.34ZM207.987 26.2C206.987 26.2 206.12 26.0067 205.387 25.62C204.667 25.22 204.107 24.6133 203.707 23.8C203.32 22.9733 203.127 21.92 203.127 20.64C203.127 19.3067 203.34 18.2267 203.767 17.4C204.207 16.56 204.807 15.9467 205.567 15.56C206.34 15.16 207.213 14.96 208.187 14.96C208.8 14.96 209.373 15.0267 209.907 15.16C210.453 15.2933 210.907 15.4533 211.267 15.64L210.467 17.58C210.107 17.4333 209.747 17.3067 209.387 17.2C209.027 17.0933 208.667 17.04 208.307 17.04C207.76 17.04 207.307 17.1733 206.947 17.44C206.587 17.7067 206.307 18.1067 206.107 18.64C205.92 19.16 205.827 19.82 205.827 20.62C205.827 21.3933 205.92 22.04 206.107 22.56C206.307 23.08 206.587 23.4733 206.947 23.74C207.307 23.9933 207.747 24.12 208.267 24.12C208.787 24.12 209.267 24.0467 209.707 23.9C210.16 23.7533 210.587 23.5533 210.987 23.3V25.48C210.573 25.7333 210.133 25.9133 209.667 26.02C209.2 26.14 208.64 26.2 207.987 26.2ZM217.536 14.96C218.469 14.96 219.269 15.16 219.936 15.56C220.616 15.9467 221.143 16.5067 221.516 17.24C221.889 17.96 222.076 18.84 222.076 19.88V21.16H215.436C215.463 22.1467 215.703 22.9133 216.156 23.46C216.623 23.9933 217.276 24.26 218.116 24.26C218.783 24.26 219.376 24.1933 219.896 24.06C220.416 23.9133 220.956 23.7067 221.516 23.44V25.46C221.009 25.7133 220.483 25.9 219.936 26.02C219.389 26.14 218.716 26.2 217.916 26.2C216.903 26.2 216.003 26 215.216 25.6C214.443 25.1867 213.836 24.5667 213.396 23.74C212.956 22.9133 212.736 21.8867 212.736 20.66C212.736 19.42 212.936 18.38 213.336 17.54C213.736 16.6867 214.296 16.0467 215.016 15.62C215.749 15.18 216.589 14.96 217.536 14.96ZM217.576 16.82C216.976 16.82 216.489 17.04 216.116 17.48C215.756 17.9067 215.543 18.5467 215.476 19.4H219.556C219.556 18.8933 219.483 18.4467 219.336 18.06C219.189 17.6733 218.969 17.3733 218.676 17.16C218.396 16.9333 218.029 16.82 217.576 16.82ZM231.49 22.86C231.49 23.58 231.33 24.1933 231.01 24.7C230.69 25.1933 230.217 25.5667 229.59 25.82C228.963 26.0733 228.177 26.2 227.23 26.2C226.51 26.2 225.883 26.1467 225.35 26.04C224.817 25.9333 224.303 25.7667 223.81 25.54V23.4C224.343 23.6533 224.917 23.8667 225.53 24.04C226.157 24.2133 226.723 24.3 227.23 24.3C227.83 24.3 228.263 24.1933 228.53 23.98C228.797 23.7667 228.93 23.48 228.93 23.12C228.93 22.9067 228.87 22.7133 228.75 22.54C228.643 22.3667 228.417 22.1867 228.07 22C227.737 21.8 227.25 21.5533 226.61 21.26C225.983 20.98 225.463 20.7 225.05 20.42C224.637 20.14 224.323 19.8067 224.11 19.42C223.897 19.02 223.79 18.52 223.79 17.92C223.79 16.9467 224.157 16.2133 224.89 15.72C225.637 15.2133 226.61 14.96 227.81 14.96C228.463 14.96 229.07 15.0267 229.63 15.16C230.203 15.28 230.777 15.48 231.35 15.76L230.57 17.62C230.25 17.4733 229.923 17.3467 229.59 17.24C229.27 17.12 228.957 17.0267 228.65 16.96C228.357 16.8933 228.063 16.86 227.77 16.86C227.303 16.86 226.95 16.9467 226.71 17.12C226.47 17.28 226.35 17.5133 226.35 17.82C226.35 18.0333 226.41 18.2267 226.53 18.4C226.65 18.56 226.877 18.7267 227.21 18.9C227.543 19.0733 228.017 19.2933 228.63 19.56C229.243 19.8 229.763 20.06 230.19 20.34C230.617 20.6067 230.937 20.94 231.15 21.34C231.377 21.74 231.49 22.2467 231.49 22.86ZM240.846 22.86C240.846 23.58 240.686 24.1933 240.366 24.7C240.046 25.1933 239.572 25.5667 238.946 25.82C238.319 26.0733 237.532 26.2 236.586 26.2C235.866 26.2 235.239 26.1467 234.706 26.04C234.172 25.9333 233.659 25.7667 233.166 25.54V23.4C233.699 23.6533 234.272 23.8667 234.886 24.04C235.512 24.2133 236.079 24.3 236.586 24.3C237.186 24.3 237.619 24.1933 237.886 23.98C238.152 23.7667 238.286 23.48 238.286 23.12C238.286 22.9067 238.226 22.7133 238.106 22.54C237.999 22.3667 237.772 22.1867 237.426 22C237.092 21.8 236.606 21.5533 235.966 21.26C235.339 20.98 234.819 20.7 234.406 20.42C233.992 20.14 233.679 19.8067 233.466 19.42C233.252 19.02 233.146 18.52 233.146 17.92C233.146 16.9467 233.512 16.2133 234.246 15.72C234.992 15.2133 235.966 14.96 237.166 14.96C237.819 14.96 238.426 15.0267 238.986 15.16C239.559 15.28 240.132 15.48 240.706 15.76L239.926 17.62C239.606 17.4733 239.279 17.3467 238.946 17.24C238.626 17.12 238.312 17.0267 238.006 16.96C237.712 16.8933 237.419 16.86 237.126 16.86C236.659 16.86 236.306 16.9467 236.066 17.12C235.826 17.28 235.706 17.5133 235.706 17.82C235.706 18.0333 235.766 18.2267 235.886 18.4C236.006 18.56 236.232 18.7267 236.566 18.9C236.899 19.0733 237.372 19.2933 237.986 19.56C238.599 19.8 239.119 20.06 239.546 20.34C239.972 20.6067 240.292 20.94 240.506 21.34C240.732 21.74 240.846 22.2467 240.846 22.86ZM245.721 15.16V26H243.081V15.16H245.721ZM244.421 10.98C244.808 10.98 245.141 11.08 245.421 11.28C245.701 11.4667 245.841 11.8067 245.841 12.3C245.841 12.78 245.701 13.1267 245.421 13.34C245.141 13.54 244.808 13.64 244.421 13.64C244.008 13.64 243.661 13.54 243.381 13.34C243.101 13.1267 242.961 12.78 242.961 12.3C242.961 11.8067 243.101 11.4667 243.381 11.28C243.661 11.08 244.008 10.98 244.421 10.98ZM251.248 14.4C251.248 14.8267 251.235 15.24 251.208 15.64C251.195 16.04 251.175 16.3533 251.148 16.58H251.248C251.528 16.1267 251.901 15.7467 252.368 15.44C252.835 15.12 253.448 14.96 254.208 14.96C255.355 14.96 256.288 15.4333 257.008 16.38C257.741 17.3267 258.108 18.72 258.108 20.56C258.108 21.8 257.941 22.84 257.608 23.68C257.288 24.52 256.828 25.1533 256.228 25.58C255.628 25.9933 254.928 26.2 254.128 26.2C253.381 26.2 252.781 26.0533 252.328 25.76C251.888 25.4667 251.528 25.1267 251.248 24.74H251.068L250.628 26H248.608V10.8H251.248V14.4ZM253.368 17C252.861 17 252.455 17.12 252.148 17.36C251.841 17.6 251.615 17.9667 251.468 18.46C251.335 18.9533 251.268 19.58 251.268 20.34V20.56C251.268 21.72 251.421 22.6067 251.728 23.22C252.035 23.8333 252.601 24.14 253.428 24.14C254.068 24.14 254.555 23.8333 254.888 23.22C255.235 22.5933 255.408 21.7 255.408 20.54C255.408 19.3667 255.235 18.4867 254.888 17.9C254.555 17.3 254.048 17 253.368 17ZM263.104 15.16V26H260.464V15.16H263.104ZM261.804 10.98C262.191 10.98 262.524 11.08 262.804 11.28C263.084 11.4667 263.224 11.8067 263.224 12.3C263.224 12.78 263.084 13.1267 262.804 13.34C262.524 13.54 262.191 13.64 261.804 13.64C261.391 13.64 261.044 13.54 260.764 13.34C260.484 13.1267 260.344 12.78 260.344 12.3C260.344 11.8067 260.484 11.4667 260.764 11.28C261.044 11.08 261.391 10.98 261.804 10.98ZM268.651 26H265.991V10.8H268.651V26ZM274.198 15.16V26H271.558V15.16H274.198ZM272.898 10.98C273.284 10.98 273.618 11.08 273.898 11.28C274.178 11.4667 274.318 11.8067 274.318 12.3C274.318 12.78 274.178 13.1267 273.898 13.34C273.618 13.54 273.284 13.64 272.898 13.64C272.484 13.64 272.138 13.54 271.858 13.34C271.578 13.1267 271.438 12.78 271.438 12.3C271.438 11.8067 271.578 11.4667 271.858 11.28C272.138 11.08 272.484 10.98 272.898 10.98ZM280.445 26.2C279.285 26.2 278.345 25.7333 277.625 24.8C276.905 23.8533 276.545 22.4533 276.545 20.6C276.545 18.7467 276.911 17.3467 277.645 16.4C278.378 15.44 279.338 14.96 280.525 14.96C281.018 14.96 281.445 15.0333 281.805 15.18C282.178 15.3133 282.498 15.5 282.765 15.74C283.031 15.98 283.265 16.2467 283.465 16.54H283.545C283.518 16.3533 283.485 16.0667 283.445 15.68C283.405 15.2933 283.385 14.9333 283.385 14.6V10.8H286.045V26H284.005L283.505 24.58H283.385C283.211 24.8733 282.991 25.1467 282.725 25.4C282.458 25.64 282.138 25.8333 281.765 25.98C281.391 26.1267 280.951 26.2 280.445 26.2ZM281.325 24.16C282.138 24.16 282.711 23.8933 283.045 23.36C283.378 22.8267 283.545 22.02 283.545 20.94V20.62C283.545 19.4467 283.385 18.5533 283.065 17.94C282.745 17.3267 282.158 17.02 281.305 17.02C280.638 17.02 280.125 17.34 279.765 17.98C279.418 18.6067 279.245 19.4933 279.245 20.64C279.245 21.7867 279.425 22.66 279.785 23.26C280.145 23.86 280.658 24.16 281.325 24.16ZM293.26 14.96C294.567 14.96 295.567 15.2667 296.26 15.88C296.954 16.48 297.3 17.4267 297.3 18.72V26H295.44L294.92 24.5H294.84C294.547 24.8867 294.247 25.2133 293.94 25.48C293.634 25.7333 293.28 25.9133 292.88 26.02C292.48 26.14 292 26.2 291.44 26.2C290.84 26.2 290.3 26.08 289.82 25.84C289.34 25.6 288.96 25.2333 288.68 24.74C288.4 24.2333 288.26 23.6 288.26 22.84C288.26 21.72 288.647 20.88 289.42 20.32C290.194 19.7467 291.354 19.4333 292.9 19.38L294.64 19.32V18.78C294.64 18.0867 294.494 17.5933 294.2 17.3C293.907 17.0067 293.507 16.86 293 16.86C292.52 16.86 292.034 16.94 291.54 17.1C291.06 17.26 290.587 17.4467 290.12 17.66L289.3 15.9C289.847 15.62 290.454 15.3933 291.12 15.22C291.787 15.0467 292.5 14.96 293.26 14.96ZM293.52 20.92C292.574 20.96 291.914 21.1533 291.54 21.5C291.167 21.8333 290.98 22.2867 290.98 22.86C290.98 23.3667 291.107 23.7333 291.36 23.96C291.627 24.1867 291.974 24.3 292.4 24.3C293.027 24.3 293.56 24.0933 294 23.68C294.44 23.2533 294.66 22.6267 294.66 21.8V20.88L293.52 20.92ZM303.472 26.2C302.312 26.2 301.372 25.7333 300.652 24.8C299.932 23.8533 299.572 22.4533 299.572 20.6C299.572 18.7467 299.939 17.3467 300.672 16.4C301.405 15.44 302.365 14.96 303.552 14.96C304.045 14.96 304.472 15.0333 304.832 15.18C305.205 15.3133 305.525 15.5 305.792 15.74C306.059 15.98 306.292 16.2467 306.492 16.54H306.572C306.545 16.3533 306.512 16.0667 306.472 15.68C306.432 15.2933 306.412 14.9333 306.412 14.6V10.8H309.072V26H307.032L306.532 24.58H306.412C306.239 24.8733 306.019 25.1467 305.752 25.4C305.485 25.64 305.165 25.8333 304.792 25.98C304.419 26.1267 303.979 26.2 303.472 26.2ZM304.352 24.16C305.165 24.16 305.739 23.8933 306.072 23.36C306.405 22.8267 306.572 22.02 306.572 20.94V20.62C306.572 19.4467 306.412 18.5533 306.092 17.94C305.772 17.3267 305.185 17.02 304.332 17.02C303.665 17.02 303.152 17.34 302.792 17.98C302.445 18.6067 302.272 19.4933 302.272 20.64C302.272 21.7867 302.452 22.66 302.812 23.26C303.172 23.86 303.685 24.16 304.352 24.16ZM316.208 14.96C317.141 14.96 317.941 15.16 318.608 15.56C319.288 15.9467 319.814 16.5067 320.188 17.24C320.561 17.96 320.748 18.84 320.748 19.88V21.16H314.108C314.134 22.1467 314.374 22.9133 314.828 23.46C315.294 23.9933 315.948 24.26 316.788 24.26C317.454 24.26 318.048 24.1933 318.568 24.06C319.088 23.9133 319.628 23.7067 320.188 23.44V25.46C319.681 25.7133 319.154 25.9 318.608 26.02C318.061 26.14 317.388 26.2 316.588 26.2C315.574 26.2 314.674 26 313.888 25.6C313.114 25.1867 312.508 24.5667 312.068 23.74C311.628 22.9133 311.408 21.8867 311.408 20.66C311.408 19.42 311.608 18.38 312.008 17.54C312.408 16.6867 312.968 16.0467 313.688 15.62C314.421 15.18 315.261 14.96 316.208 14.96ZM316.248 16.82C315.648 16.82 315.161 17.04 314.788 17.48C314.428 17.9067 314.214 18.5467 314.148 19.4H318.228C318.228 18.8933 318.154 18.4467 318.008 18.06C317.861 17.6733 317.641 17.3733 317.348 17.16C317.068 16.9333 316.701 16.82 316.248 16.82ZM80.7 39.96C81.6333 39.96 82.4333 40.16 83.1 40.56C83.78 40.9467 84.3067 41.5067 84.68 42.24C85.0533 42.96 85.24 43.84 85.24 44.88V46.16H78.6C78.6267 47.1467 78.8667 47.9133 79.32 48.46C79.7867 48.9933 80.44 49.26 81.28 49.26C81.9467 49.26 82.54 49.1933 83.06 49.06C83.58 48.9133 84.12 48.7067 84.68 48.44V50.46C84.1733 50.7133 83.6467 50.9 83.1 51.02C82.5533 51.14 81.88 51.2 81.08 51.2C80.0667 51.2 79.1667 51 78.38 50.6C77.6067 50.1867 77 49.5667 76.56 48.74C76.12 47.9133 75.9 46.8867 75.9 45.66C75.9 44.42 76.1 43.38 76.5 42.54C76.9 41.6867 77.46 41.0467 78.18 40.62C78.9133 40.18 79.7533 39.96 80.7 39.96ZM80.74 41.82C80.14 41.82 79.6533 42.04 79.28 42.48C78.92 42.9067 78.7067 43.5467 78.64 44.4H82.72C82.72 43.8933 82.6467 43.4467 82.5 43.06C82.3533 42.6733 82.1333 42.3733 81.84 42.16C81.56 41.9333 81.1933 41.82 80.74 41.82ZM103.457 45.96C103.457 46.9467 103.25 47.84 102.837 48.64C102.437 49.4267 101.824 50.0533 100.997 50.52C100.184 50.9733 99.1637 51.2 97.937 51.2C96.177 51.2 94.8304 50.72 93.897 49.76C92.977 48.7867 92.517 47.5067 92.517 45.92V36.72H95.197V45.66C95.197 46.82 95.4304 47.6733 95.897 48.22C96.3637 48.7533 97.0637 49.02 97.997 49.02C98.6504 49.02 99.177 48.8933 99.577 48.64C99.9904 48.3867 100.29 48.0067 100.477 47.5C100.664 46.98 100.757 46.36 100.757 45.64V36.72H103.457V45.96ZM113.6 47.86C113.6 48.58 113.44 49.1933 113.12 49.7C112.8 50.1933 112.326 50.5667 111.7 50.82C111.073 51.0733 110.286 51.2 109.34 51.2C108.62 51.2 107.993 51.1467 107.46 51.04C106.926 50.9333 106.413 50.7667 105.92 50.54V48.4C106.453 48.6533 107.026 48.8667 107.64 49.04C108.266 49.2133 108.833 49.3 109.34 49.3C109.94 49.3 110.373 49.1933 110.64 48.98C110.906 48.7667 111.04 48.48 111.04 48.12C111.04 47.9067 110.98 47.7133 110.86 47.54C110.753 47.3667 110.526 47.1867 110.18 47C109.846 46.8 109.36 46.5533 108.72 46.26C108.093 45.98 107.573 45.7 107.16 45.42C106.746 45.14 106.433 44.8067 106.22 44.42C106.006 44.02 105.9 43.52 105.9 42.92C105.9 41.9467 106.266 41.2133 107 40.72C107.746 40.2133 108.72 39.96 109.92 39.96C110.573 39.96 111.18 40.0267 111.74 40.16C112.313 40.28 112.886 40.48 113.46 40.76L112.68 42.62C112.36 42.4733 112.033 42.3467 111.7 42.24C111.38 42.12 111.066 42.0267 110.76 41.96C110.466 41.8933 110.173 41.86 109.88 41.86C109.413 41.86 109.06 41.9467 108.82 42.12C108.58 42.28 108.46 42.5133 108.46 42.82C108.46 43.0333 108.52 43.2267 108.64 43.4C108.76 43.56 108.986 43.7267 109.32 43.9C109.653 44.0733 110.126 44.2933 110.74 44.56C111.353 44.8 111.873 45.06 112.3 45.34C112.726 45.6067 113.046 45.94 113.26 46.34C113.486 46.74 113.6 47.2467 113.6 47.86ZM120.155 39.96C121.462 39.96 122.462 40.2667 123.155 40.88C123.848 41.48 124.195 42.4267 124.195 43.72V51H122.335L121.815 49.5H121.735C121.442 49.8867 121.142 50.2133 120.835 50.48C120.528 50.7333 120.175 50.9133 119.775 51.02C119.375 51.14 118.895 51.2 118.335 51.2C117.735 51.2 117.195 51.08 116.715 50.84C116.235 50.6 115.855 50.2333 115.575 49.74C115.295 49.2333 115.155 48.6 115.155 47.84C115.155 46.72 115.542 45.88 116.315 45.32C117.088 44.7467 118.248 44.4333 119.795 44.38L121.535 44.32V43.78C121.535 43.0867 121.388 42.5933 121.095 42.3C120.802 42.0067 120.402 41.86 119.895 41.86C119.415 41.86 118.928 41.94 118.435 42.1C117.955 42.26 117.482 42.4467 117.015 42.66L116.195 40.9C116.742 40.62 117.348 40.3933 118.015 40.22C118.682 40.0467 119.395 39.96 120.155 39.96ZM120.415 45.92C119.468 45.96 118.808 46.1533 118.435 46.5C118.062 46.8333 117.875 47.2867 117.875 47.86C117.875 48.3667 118.002 48.7333 118.255 48.96C118.522 49.1867 118.868 49.3 119.295 49.3C119.922 49.3 120.455 49.0933 120.895 48.68C121.335 48.2533 121.555 47.6267 121.555 46.8V45.88L120.415 45.92ZM129.646 39.4C129.646 39.8267 129.633 40.24 129.606 40.64C129.593 41.04 129.573 41.3533 129.546 41.58H129.646C129.926 41.1267 130.3 40.7467 130.766 40.44C131.233 40.12 131.846 39.96 132.606 39.96C133.753 39.96 134.686 40.4333 135.406 41.38C136.14 42.3267 136.506 43.72 136.506 45.56C136.506 46.8 136.34 47.84 136.006 48.68C135.686 49.52 135.226 50.1533 134.626 50.58C134.026 50.9933 133.326 51.2 132.526 51.2C131.78 51.2 131.18 51.0533 130.726 50.76C130.286 50.4667 129.926 50.1267 129.646 49.74H129.466L129.026 51H127.006V35.8H129.646V39.4ZM131.766 42C131.26 42 130.853 42.12 130.546 42.36C130.24 42.6 130.013 42.9667 129.866 43.46C129.733 43.9533 129.666 44.58 129.666 45.34V45.56C129.666 46.72 129.82 47.6067 130.126 48.22C130.433 48.8333 131 49.14 131.826 49.14C132.466 49.14 132.953 48.8333 133.286 48.22C133.633 47.5933 133.806 46.7 133.806 45.54C133.806 44.3667 133.633 43.4867 133.286 42.9C132.953 42.3 132.446 42 131.766 42ZM141.502 40.16V51H138.862V40.16H141.502ZM140.202 35.98C140.589 35.98 140.922 36.08 141.202 36.28C141.482 36.4667 141.622 36.8067 141.622 37.3C141.622 37.78 141.482 38.1267 141.202 38.34C140.922 38.54 140.589 38.64 140.202 38.64C139.789 38.64 139.442 38.54 139.162 38.34C138.882 38.1267 138.742 37.78 138.742 37.3C138.742 36.8067 138.882 36.4667 139.162 36.28C139.442 36.08 139.789 35.98 140.202 35.98ZM147.049 51H144.389V35.8H147.049V51ZM152.596 40.16V51H149.956V40.16H152.596ZM151.296 35.98C151.683 35.98 152.016 36.08 152.296 36.28C152.576 36.4667 152.716 36.8067 152.716 37.3C152.716 37.78 152.576 38.1267 152.296 38.34C152.016 38.54 151.683 38.64 151.296 38.64C150.883 38.64 150.536 38.54 150.256 38.34C149.976 38.1267 149.836 37.78 149.836 37.3C149.836 36.8067 149.976 36.4667 150.256 36.28C150.536 36.08 150.883 35.98 151.296 35.98ZM158.843 51.2C157.683 51.2 156.743 50.7333 156.023 49.8C155.303 48.8533 154.943 47.4533 154.943 45.6C154.943 43.7467 155.31 42.3467 156.043 41.4C156.776 40.44 157.736 39.96 158.923 39.96C159.416 39.96 159.843 40.0333 160.203 40.18C160.576 40.3133 160.896 40.5 161.163 40.74C161.43 40.98 161.663 41.2467 161.863 41.54H161.943C161.916 41.3533 161.883 41.0667 161.843 40.68C161.803 40.2933 161.783 39.9333 161.783 39.6V35.8H164.443V51H162.403L161.903 49.58H161.783C161.61 49.8733 161.39 50.1467 161.123 50.4C160.856 50.64 160.536 50.8333 160.163 50.98C159.79 51.1267 159.35 51.2 158.843 51.2ZM159.723 49.16C160.536 49.16 161.11 48.8933 161.443 48.36C161.776 47.8267 161.943 47.02 161.943 45.94V45.62C161.943 44.4467 161.783 43.5533 161.463 42.94C161.143 42.3267 160.556 42.02 159.703 42.02C159.036 42.02 158.523 42.34 158.163 42.98C157.816 43.6067 157.643 44.4933 157.643 45.64C157.643 46.7867 157.823 47.66 158.183 48.26C158.543 48.86 159.056 49.16 159.723 49.16ZM171.659 39.96C172.966 39.96 173.966 40.2667 174.659 40.88C175.352 41.48 175.699 42.4267 175.699 43.72V51H173.839L173.319 49.5H173.239C172.946 49.8867 172.646 50.2133 172.339 50.48C172.032 50.7333 171.679 50.9133 171.279 51.02C170.879 51.14 170.399 51.2 169.839 51.2C169.239 51.2 168.699 51.08 168.219 50.84C167.739 50.6 167.359 50.2333 167.079 49.74C166.799 49.2333 166.659 48.6 166.659 47.84C166.659 46.72 167.046 45.88 167.819 45.32C168.592 44.7467 169.752 44.4333 171.299 44.38L173.039 44.32V43.78C173.039 43.0867 172.892 42.5933 172.599 42.3C172.306 42.0067 171.906 41.86 171.399 41.86C170.919 41.86 170.432 41.94 169.939 42.1C169.459 42.26 168.986 42.4467 168.519 42.66L167.699 40.9C168.246 40.62 168.852 40.3933 169.519 40.22C170.186 40.0467 170.899 39.96 171.659 39.96ZM171.919 45.92C170.972 45.96 170.312 46.1533 169.939 46.5C169.566 46.8333 169.379 47.2867 169.379 47.86C169.379 48.3667 169.506 48.7333 169.759 48.96C170.026 49.1867 170.372 49.3 170.799 49.3C171.426 49.3 171.959 49.0933 172.399 48.68C172.839 48.2533 173.059 47.6267 173.059 46.8V45.88L171.919 45.92ZM181.87 51.2C180.71 51.2 179.77 50.7333 179.05 49.8C178.33 48.8533 177.97 47.4533 177.97 45.6C177.97 43.7467 178.337 42.3467 179.07 41.4C179.804 40.44 180.764 39.96 181.95 39.96C182.444 39.96 182.87 40.0333 183.23 40.18C183.604 40.3133 183.924 40.5 184.19 40.74C184.457 40.98 184.69 41.2467 184.89 41.54H184.97C184.944 41.3533 184.91 41.0667 184.87 40.68C184.83 40.2933 184.81 39.9333 184.81 39.6V35.8H187.47V51H185.43L184.93 49.58H184.81C184.637 49.8733 184.417 50.1467 184.15 50.4C183.884 50.64 183.564 50.8333 183.19 50.98C182.817 51.1267 182.377 51.2 181.87 51.2ZM182.75 49.16C183.564 49.16 184.137 48.8933 184.47 48.36C184.804 47.8267 184.97 47.02 184.97 45.94V45.62C184.97 44.4467 184.81 43.5533 184.49 42.94C184.17 42.3267 183.584 42.02 182.73 42.02C182.064 42.02 181.55 42.34 181.19 42.98C180.844 43.6067 180.67 44.4933 180.67 45.64C180.67 46.7867 180.85 47.66 181.21 48.26C181.57 48.86 182.084 49.16 182.75 49.16ZM194.606 39.96C195.54 39.96 196.34 40.16 197.006 40.56C197.686 40.9467 198.213 41.5067 198.586 42.24C198.96 42.96 199.146 43.84 199.146 44.88V46.16H192.506C192.533 47.1467 192.773 47.9133 193.226 48.46C193.693 48.9933 194.346 49.26 195.186 49.26C195.853 49.26 196.446 49.1933 196.966 49.06C197.486 48.9133 198.026 48.7067 198.586 48.44V50.46C198.08 50.7133 197.553 50.9 197.006 51.02C196.46 51.14 195.786 51.2 194.986 51.2C193.973 51.2 193.073 51 192.286 50.6C191.513 50.1867 190.906 49.5667 190.466 48.74C190.026 47.9133 189.806 46.8867 189.806 45.66C189.806 44.42 190.006 43.38 190.406 42.54C190.806 41.6867 191.366 41.0467 192.086 40.62C192.82 40.18 193.66 39.96 194.606 39.96ZM194.646 41.82C194.046 41.82 193.56 42.04 193.186 42.48C192.826 42.9067 192.613 43.5467 192.546 44.4H196.626C196.626 43.8933 196.553 43.4467 196.406 43.06C196.26 42.6733 196.04 42.3733 195.746 42.16C195.466 41.9333 195.1 41.82 194.646 41.82Z" fill="#0902A2"/>
</svg>
